<svg width="374" height="333" viewBox="0 0 374 333" fill="none" xmlns="http://www.w3.org/2000/svg">
<path fill-rule="evenodd" clip-rule="evenodd" d="M87.631 1.30495C71.773 3.90395 54.661 10.899 43.058 19.525C5.76703 47.249 -9.00197 93.2969 5.49003 136.665C13.775 161.458 31.55 182.493 54.979 195.231C61.753 198.913 77.717 204.832 80.876 204.832C81.932 204.832 82.817 205.169 82.842 205.582C82.867 205.995 82.998 220.282 83.133 237.332C83.409 272.344 83.504 272.858 90.829 279.128C95.611 283.221 99.51 284.306 106.892 283.597C115.556 282.764 123.159 274.874 124.299 265.532C124.649 262.672 124.791 242.557 124.615 220.832L124.296 181.332L121.519 176.609C117.333 169.486 112.093 166.853 100.021 165.804C80.532 164.111 64.574 155.667 54.136 141.522C45.475 129.787 41.691 118.048 41.709 102.975C41.729 85.793 47.41 72.23 59.82 59.738C76.03 43.418 99.485 37.144 120.828 43.417C134.528 47.444 148.659 57.856 155.796 69.182C157.721 72.236 159.522 74.758 159.799 74.784C160.076 74.81 161.35 71.795 162.63 68.082C165.9 58.601 170.902 48.468 176.172 40.647L180.677 33.962L173.976 27.647C151.497 6.46095 118.181 -3.70305 87.631 1.30495ZM253.796 1.33195C206.363 8.93295 169.543 49.2939 167.058 96.409C166.288 111 169.032 117.361 178.089 121.982C183.796 124.893 193.018 124.275 198.557 120.609C204.036 116.983 207.796 109.327 207.796 101.796C207.796 94.901 210.805 82.7209 214.128 76.1629C217.956 68.6089 225.244 59.501 231.037 55.032C241.824 46.71 258 40.818 270.004 40.84C287.757 40.871 307.38 50.091 318.347 63.554C334.36 83.211 337.248 110.858 325.617 133.146C320.866 142.25 308.301 154.391 298.796 159.062C290.303 163.236 280.658 165.793 273.296 165.823C266.006 165.852 261.161 167.507 256.784 171.462C249.685 177.876 249.678 177.927 250.005 226.833L250.296 270.332L252.703 274.203C254.026 276.332 257.152 279.37 259.648 280.953C263.374 283.316 265.272 283.829 270.242 283.816C277.761 283.795 282.959 281.098 287.254 274.99L290.296 270.664L290.796 238.061L291.296 205.457L294.796 204.592C317.746 198.921 339.791 183.956 354.84 163.832C360.299 156.532 367.062 142.439 370.438 131.332C372.985 122.949 373.172 121.099 373.163 104.332C373.152 84.243 371.953 77.816 365.377 62.605C355.53 39.829 338.125 21.485 316.315 10.893C296.157 1.10495 275.206 -2.10005 253.796 1.33195ZM95.296 295.304C89.238 298.467 86.262 302.063 84.619 308.203C81.281 320.684 91.086 332.832 104.499 332.832C108.568 332.832 110.52 332.19 114.376 329.582C126.818 321.169 126.863 304.112 114.464 296.435C107.795 292.305 101.726 291.947 95.296 295.304ZM264.481 293.849C260.05 295.179 254.967 299.576 252.681 304.058C249.522 310.249 250.308 319.419 254.436 324.545C258.692 329.83 264.267 332.795 269.981 332.816C276.041 332.837 278.796 331.73 283.688 327.311C292.206 319.615 292.263 306.101 283.811 298.465C278.273 293.461 271.311 291.799 264.481 293.849Z" fill="#415F91"/>
</svg>
